<svg width="21" height="22" viewBox="0 0 21 22" fill="none" xmlns="http://www.w3.org/2000/svg">
<path fill-rule="evenodd" clip-rule="evenodd" d="M9.15303 0.145996H11.847C13.2499 0.145987 14.3497 0.145987 15.2284 0.23351C16.124 0.32272 16.8573 0.507686 17.5039 0.922706C18.1808 1.35732 18.75 1.95361 19.1649 2.66282C19.561 3.34008 19.7376 4.10834 19.8227 5.0466C19.9062 5.9671 19.9063 7.11931 19.9063 8.58905V9.56731C19.9063 10.6135 19.9063 11.4338 19.8631 12.0964C19.8192 12.7706 19.7285 13.3317 19.5233 13.8505C19.0126 15.142 18.0331 16.1681 16.8004 16.7031C16.0961 17.0087 15.2938 17.0766 14.1954 17.0964C13.8112 17.1033 13.5678 17.1085 13.3823 17.1299C13.209 17.1501 13.1418 17.1795 13.1024 17.2035C13.061 17.2287 13.0044 17.2748 12.9063 17.4158C12.8001 17.5685 12.6802 17.7795 12.4899 18.1162L12.0156 18.9557C11.3387 20.1538 9.66131 20.1538 8.98441 18.9557L8.51007 18.1162C8.31981 17.7795 8.19982 17.5685 8.09362 17.4158C7.99551 17.2748 7.93899 17.2287 7.89751 17.2035C7.85818 17.1795 7.79099 17.1501 7.61765 17.1299C7.43214 17.1085 7.18878 17.1033 6.80458 17.0964C5.70621 17.0766 4.90397 17.0087 4.19962 16.7031C2.96683 16.1681 1.98737 15.142 1.47673 13.8505C1.27158 13.3317 1.18081 12.7706 1.13691 12.0964C1.09374 11.4338 1.09375 10.6135 1.09375 9.56731V8.58905C1.09374 7.11932 1.09374 5.9671 1.17729 5.0466C1.26244 4.10834 1.439 3.34008 1.83516 2.66282C2.25001 1.95361 2.8192 1.35732 3.49618 0.922706C4.14264 0.507686 4.87599 0.32272 5.7716 0.23351C6.65025 0.145987 7.7501 0.145987 9.15303 0.145996Z" fill="#292D32"/>
<path d="M7.875 9.08317C7.875 9.58945 7.48325 9.99984 7 9.99984C6.51676 9.99984 6.125 9.58945 6.125 9.08317C6.125 8.5769 6.51676 8.1665 7 8.1665C7.48325 8.1665 7.875 8.5769 7.875 9.08317Z" fill="#292D32"/>
<path d="M11.375 9.08317C11.375 9.58945 10.9833 9.99984 10.5 9.99984C10.0167 9.99984 9.625 9.58945 9.625 9.08317C9.625 8.5769 10.0167 8.1665 10.5 8.1665C10.9833 8.1665 11.375 8.5769 11.375 9.08317Z" fill="#292D32"/>
<path d="M14.875 9.08317C14.875 9.58945 14.4833 9.99984 14 9.99984C13.5167 9.99984 13.125 9.58945 13.125 9.08317C13.125 8.5769 13.5167 8.1665 14 8.1665C14.4833 8.1665 14.875 8.5769 14.875 9.08317Z" fill="#292D32"/>
</svg>
