<svg width="19" height="21" viewBox="0 0 19 21" fill="none" xmlns="http://www.w3.org/2000/svg">
<path fill-rule="evenodd" clip-rule="evenodd" d="M1.77212 7.09111C1.28495 7.47002 1 8.05264 1 8.66982V18.1726C1 18.678 1.20077 19.1627 1.55815 19.5201C1.91552 19.8775 2.40023 20.0782 2.90563 20.0782H6.71688V15.4086C6.71688 14.304 7.61231 13.4086 8.71688 13.4086H10.4338C11.5383 13.4086 12.4338 14.304 12.4338 15.4086V20.0782H16.245C16.7504 20.0782 17.2352 19.8775 17.5925 19.5201C17.9499 19.1627 18.1507 18.678 18.1507 18.1726V8.66982C18.1507 8.05263 17.8657 7.47002 17.3786 7.09111L10.8032 1.97696C10.081 1.41523 9.06968 1.41523 8.34746 1.97696L1.77212 7.09111Z" fill="white"/>
<path d="M1.77212 7.09111L1.34236 6.53856L1.77212 7.09111ZM1.55815 19.5201L2.05312 19.0251L2.05312 19.0251L1.55815 19.5201ZM6.71688 20.0782V20.7782C7.10348 20.7782 7.41688 20.4648 7.41688 20.0782H6.71688ZM12.4338 20.0782H11.7338C11.7338 20.4648 12.0472 20.7782 12.4338 20.7782V20.0782ZM17.5925 19.5201L17.0976 19.0251H17.0976L17.5925 19.5201ZM17.3786 7.09111L17.8083 6.53856L17.3786 7.09111ZM10.8032 1.97696L11.233 1.42441V1.42441L10.8032 1.97696ZM8.34746 1.97696L8.77722 2.52951V2.52951L8.34746 1.97696ZM1 8.66982H1.7C1.7 8.26865 1.88521 7.88995 2.20188 7.64366L1.77212 7.09111L1.34236 6.53856C0.684676 7.0501 0.3 7.83662 0.3 8.66982H1ZM1 18.1726H1.7V8.66982H1H0.3V18.1726H1ZM1.55815 19.5201L2.05312 19.0251C1.82702 18.799 1.7 18.4924 1.7 18.1726H1H0.3C0.3 18.8637 0.574521 19.5264 1.06317 20.0151L1.55815 19.5201ZM2.90563 20.0782V19.3782C2.58588 19.3782 2.27922 19.2512 2.05312 19.0251L1.55815 19.5201L1.06317 20.0151C1.55182 20.5037 2.21457 20.7782 2.90563 20.7782V20.0782ZM6.71688 20.0782V19.3782H2.90563V20.0782V20.7782H6.71688V20.0782ZM6.71688 20.0782H7.41688V15.4086H6.71688H6.01688V20.0782H6.71688ZM6.71688 15.4086H7.41688C7.41688 14.6906 7.99891 14.1086 8.71688 14.1086V13.4086V12.7086C7.22571 12.7086 6.01688 13.9174 6.01688 15.4086H6.71688ZM8.71688 13.4086V14.1086H10.4338V13.4086V12.7086H8.71688V13.4086ZM10.4338 13.4086V14.1086C11.1517 14.1086 11.7338 14.6906 11.7338 15.4086H12.4338H13.1338C13.1338 13.9174 11.9249 12.7086 10.4338 12.7086V13.4086ZM12.4338 15.4086H11.7338V20.0782H12.4338H13.1338V15.4086H12.4338ZM16.245 20.0782V19.3782H12.4338V20.0782V20.7782H16.245V20.0782ZM17.5925 19.5201L17.0976 19.0251C16.8715 19.2512 16.5648 19.3782 16.245 19.3782V20.0782V20.7782C16.9361 20.7782 17.5989 20.5037 18.0875 20.0151L17.5925 19.5201ZM18.1507 18.1726H17.4507C17.4507 18.4924 17.3237 18.799 17.0976 19.0251L17.5925 19.5201L18.0875 20.0151C18.5762 19.5264 18.8507 18.8637 18.8507 18.1726H18.1507ZM18.1507 8.66982H17.4507V18.1726H18.1507H18.8507V8.66982H18.1507ZM17.3786 7.09111L16.9488 7.64366C17.2655 7.88995 17.4507 8.26865 17.4507 8.66982H18.1507H18.8507C18.8507 7.83662 18.466 7.0501 17.8083 6.53856L17.3786 7.09111ZM10.8032 1.97696L10.3735 2.52951L16.9488 7.64366L17.3786 7.09111L17.8083 6.53856L11.233 1.42441L10.8032 1.97696ZM8.34746 1.97696L8.77722 2.52951C9.24666 2.16438 9.90402 2.16438 10.3735 2.52951L10.8032 1.97696L11.233 1.42441C10.258 0.666081 8.8927 0.666081 7.9177 1.42441L8.34746 1.97696ZM1.77212 7.09111L2.20188 7.64366L8.77722 2.52951L8.34746 1.97696L7.9177 1.42441L1.34236 6.53856L1.77212 7.09111Z" fill="#292D32"/>
</svg>
