<svg width="19" height="19" viewBox="0 0 19 19" fill="none" xmlns="http://www.w3.org/2000/svg">
<g clip-path="url(#clip0_226_214)">
<path d="M15.4517 8.57473C15.3738 8.57473 15.2965 8.57473 15.2186 8.57473C12.6954 8.57473 10.1721 8.57356 7.64885 8.57532C7.05842 8.5759 6.64814 8.97532 6.65919 9.52795C6.66848 9.9993 7.03285 10.3911 7.50008 10.4291C7.59364 10.4367 7.68836 10.4356 7.78251 10.4356C10.2622 10.4361 12.7419 10.4356 15.2215 10.4356C15.2988 10.4356 15.3755 10.4356 15.4993 10.4356C15.4278 10.518 15.3906 10.5671 15.3476 10.6104C15.0152 10.9467 14.6788 11.2782 14.3493 11.6174C13.9587 12.0198 13.9494 12.597 14.3214 12.9677C14.6933 13.3391 15.2686 13.3285 15.6644 12.9332C16.5692 12.028 17.4717 11.1203 18.3713 10.2098C18.8007 9.77532 18.7984 9.23204 18.3666 8.7952C17.4717 7.88994 16.575 6.98701 15.6748 6.08701C15.2663 5.67883 14.6927 5.66596 14.3173 6.04549C13.9425 6.42503 13.9599 6.99579 14.3667 7.41216C14.7322 7.78585 15.1047 8.15251 15.4737 8.5221C15.4679 8.53965 15.4598 8.55719 15.4517 8.57473Z" fill="white"/>
<path d="M0.15052 14.0537C0.149358 10.6022 0.147032 7.15077 0.1511 3.69931C0.153424 1.69872 1.60915 0.163636 3.55128 0.156034C5.25399 0.149601 7.97658 0.146093 10.2616 0.145508C10.7736 0.145508 11.1885 0.563052 11.1885 1.07884V1.0841C11.1885 1.59931 10.7741 2.01744 10.2616 2.01744C7.99227 2.01744 5.29176 2.01802 3.60649 2.01919C2.69179 2.01978 2.00897 2.70282 2.00781 3.62504C2.00374 7.54317 2.00374 11.4619 2.00781 15.3806C2.00897 16.3016 2.69412 16.9829 3.6094 16.9835C5.29351 16.9847 7.99227 16.9853 10.261 16.9853C10.773 16.9853 11.1879 17.4028 11.1879 17.9186C11.1879 18.4338 10.7736 18.8514 10.2616 18.8519C7.99401 18.8525 5.29641 18.8554 3.61405 18.8508C1.74688 18.8455 0.291733 17.4812 0.165628 15.6075C0.131342 15.0917 0.15052 14.5718 0.15052 14.0537Z" fill="white"/>
</g>
<defs>
<clipPath id="clip0_226_214">
<rect width="19" height="19" fill="white" transform="matrix(-1 0 0 1 19 0)"/>
</clipPath>
</defs>
</svg>
