<svg width="24" height="24" viewBox="0 0 24 24" fill="none" xmlns="http://www.w3.org/2000/svg">
<path d="M12.1198 11.78C12.0498 11.77 11.9598 11.77 11.8798 11.78C10.1198 11.72 8.71973 10.28 8.71973 8.50998C8.71973 6.69998 10.1798 5.22998 11.9998 5.22998C13.8098 5.22998 15.2798 6.69998 15.2798 8.50998C15.2698 10.28 13.8798 11.72 12.1198 11.78Z" stroke="#292D32" stroke-width="1.4" stroke-linecap="round" stroke-linejoin="round"/>
<path d="M18.7398 18.3801C16.9598 20.0101 14.5998 21.0001 11.9998 21.0001C9.39977 21.0001 7.03977 20.0101 5.25977 18.3801C5.35977 17.4401 5.95977 16.5201 7.02977 15.8001C9.76977 13.9801 14.2498 13.9801 16.9698 15.8001C18.0398 16.5201 18.6398 17.4401 18.7398 18.3801Z" stroke="#292D32" stroke-width="1.4" stroke-linecap="round" stroke-linejoin="round"/>
<path d="M12 21C17.5228 21 22 16.5228 22 11C22 5.47715 17.5228 1 12 1C6.47715 1 2 5.47715 2 11C2 16.5228 6.47715 21 12 21Z" stroke="#292D32" stroke-width="1.4" stroke-linecap="round" stroke-linejoin="round"/>
</svg>
