<svg width="19" height="21" viewBox="0 0 19 21" fill="none" xmlns="http://www.w3.org/2000/svg">
<path fill-rule="evenodd" clip-rule="evenodd" d="M1.77212 7.09087C1.28495 7.46978 1 8.05239 1 8.66957V18.1724C1 18.6778 1.20077 19.1625 1.55815 19.5199C1.91552 19.8772 2.40023 20.078 2.90563 20.078H6.71688V15.4084C6.71688 14.3038 7.61231 13.4084 8.71688 13.4084H10.4338C11.5383 13.4084 12.4338 14.3038 12.4338 15.4084V20.078H16.245C16.7504 20.078 17.2352 19.8772 17.5925 19.5199C17.9499 19.1625 18.1507 18.6778 18.1507 18.1724V8.66957C18.1507 8.05239 17.8657 7.46978 17.3786 7.09087L10.8032 1.97672C10.081 1.41499 9.06968 1.41499 8.34746 1.97672L1.77212 7.09087Z" fill="white"/>
<path d="M1.77212 7.09087L1.34236 6.53832L1.77212 7.09087ZM1.55815 19.5199L2.05312 19.0249L2.05312 19.0249L1.55815 19.5199ZM6.71688 20.078V20.778C7.10348 20.778 7.41688 20.4646 7.41688 20.078H6.71688ZM12.4338 20.078H11.7338C11.7338 20.4646 12.0472 20.778 12.4338 20.778V20.078ZM17.5925 19.5199L17.0976 19.0249H17.0976L17.5925 19.5199ZM17.3786 7.09087L17.8083 6.53832L17.3786 7.09087ZM10.8032 1.97672L11.233 1.42417V1.42417L10.8032 1.97672ZM8.34746 1.97672L8.77722 2.52926V2.52926L8.34746 1.97672ZM1 8.66957H1.7C1.7 8.2684 1.88521 7.88971 2.20188 7.64341L1.77212 7.09087L1.34236 6.53832C0.684676 7.04985 0.3 7.83638 0.3 8.66957H1ZM1 18.1724H1.7V8.66957H1H0.3V18.1724H1ZM1.55815 19.5199L2.05312 19.0249C1.82702 18.7988 1.7 18.4921 1.7 18.1724H1H0.3C0.3 18.8634 0.574521 19.5262 1.06317 20.0148L1.55815 19.5199ZM2.90563 20.078V19.378C2.58588 19.378 2.27922 19.251 2.05312 19.0249L1.55815 19.5199L1.06317 20.0148C1.55182 20.5035 2.21457 20.778 2.90563 20.778V20.078ZM6.71688 20.078V19.378H2.90563V20.078V20.778H6.71688V20.078ZM6.71688 20.078H7.41688V15.4084H6.71688H6.01688V20.078H6.71688ZM6.71688 15.4084H7.41688C7.41688 14.6904 7.99891 14.1084 8.71688 14.1084V13.4084V12.7084C7.22571 12.7084 6.01688 13.9172 6.01688 15.4084H6.71688ZM8.71688 13.4084V14.1084H10.4338V13.4084V12.7084H8.71688V13.4084ZM10.4338 13.4084V14.1084C11.1517 14.1084 11.7338 14.6904 11.7338 15.4084H12.4338H13.1338C13.1338 13.9172 11.9249 12.7084 10.4338 12.7084V13.4084ZM12.4338 15.4084H11.7338V20.078H12.4338H13.1338V15.4084H12.4338ZM16.245 20.078V19.378H12.4338V20.078V20.778H16.245V20.078ZM17.5925 19.5199L17.0976 19.0249C16.8715 19.251 16.5648 19.378 16.245 19.378V20.078V20.778C16.9361 20.778 17.5989 20.5035 18.0875 20.0148L17.5925 19.5199ZM18.1507 18.1724H17.4507C17.4507 18.4921 17.3237 18.7988 17.0976 19.0249L17.5925 19.5199L18.0875 20.0148C18.5762 19.5262 18.8507 18.8634 18.8507 18.1724H18.1507ZM18.1507 8.66957H17.4507V18.1724H18.1507H18.8507V8.66957H18.1507ZM17.3786 7.09087L16.9488 7.64341C17.2655 7.88971 17.4507 8.2684 17.4507 8.66957H18.1507H18.8507C18.8507 7.83638 18.466 7.04985 17.8083 6.53832L17.3786 7.09087ZM10.8032 1.97672L10.3735 2.52926L16.9488 7.64341L17.3786 7.09087L17.8083 6.53832L11.233 1.42417L10.8032 1.97672ZM8.34746 1.97672L8.77722 2.52926C9.24666 2.16414 9.90402 2.16414 10.3735 2.52926L10.8032 1.97672L11.233 1.42417C10.258 0.665837 8.8927 0.665837 7.9177 1.42417L8.34746 1.97672ZM1.77212 7.09087L2.20188 7.64341L8.77722 2.52926L8.34746 1.97672L7.9177 1.42417L1.34236 6.53832L1.77212 7.09087Z" fill="#292D32"/>
</svg>
