<svg width="24" height="24" viewBox="0 0 24 24" fill="none" xmlns="http://www.w3.org/2000/svg">
<path d="M12.12 11.78C12.05 11.77 11.96 11.77 11.88 11.78C10.12 11.72 8.71997 10.28 8.71997 8.50998C8.71997 6.69998 10.18 5.22998 12 5.22998C13.81 5.22998 15.28 6.69998 15.28 8.50998C15.27 10.28 13.88 11.72 12.12 11.78Z" stroke="#292D32" stroke-width="1.4" stroke-linecap="round" stroke-linejoin="round"/>
<path d="M18.74 18.3801C16.96 20.0101 14.6 21.0001 12 21.0001C9.40001 21.0001 7.04001 20.0101 5.26001 18.3801C5.36001 17.4401 5.96001 16.5201 7.03001 15.8001C9.77001 13.9801 14.25 13.9801 16.97 15.8001C18.04 16.5201 18.64 17.4401 18.74 18.3801Z" stroke="#292D32" stroke-width="1.4" stroke-linecap="round" stroke-linejoin="round"/>
<path d="M12 21C17.5228 21 22 16.5228 22 11C22 5.47715 17.5228 1 12 1C6.47715 1 2 5.47715 2 11C2 16.5228 6.47715 21 12 21Z" stroke="#292D32" stroke-width="1.4" stroke-linecap="round" stroke-linejoin="round"/>
</svg>
