<svg width="21" height="22" viewBox="0 0 21 22" fill="none" xmlns="http://www.w3.org/2000/svg">
<path fill-rule="evenodd" clip-rule="evenodd" d="M9.15303 0.145752H11.847C13.2499 0.145743 14.3497 0.145743 15.2284 0.233266C16.124 0.322476 16.8573 0.507441 17.5039 0.922462C18.1808 1.35707 18.75 1.95336 19.1649 2.66258C19.561 3.33983 19.7376 4.1081 19.8227 5.04635C19.9062 5.96685 19.9063 7.11906 19.9063 8.5888V9.56707C19.9063 10.6133 19.9063 11.4336 19.8631 12.0962C19.8192 12.7704 19.7285 13.3315 19.5233 13.8503C19.0126 15.1418 18.0331 16.1679 16.8004 16.7029C16.0961 17.0085 15.2938 17.0763 14.1954 17.0961C13.8112 17.1031 13.5678 17.1082 13.3823 17.1297C13.209 17.1498 13.1418 17.1793 13.1024 17.2033C13.061 17.2285 13.0044 17.2746 12.9063 17.4156C12.8001 17.5683 12.6802 17.7792 12.4899 18.116L12.0156 18.9555C11.3387 20.1536 9.66131 20.1536 8.98441 18.9555L8.51007 18.116C8.31981 17.7792 8.19982 17.5683 8.09362 17.4156C7.99551 17.2746 7.93899 17.2285 7.89751 17.2033C7.85818 17.1793 7.79099 17.1498 7.61765 17.1297C7.43214 17.1082 7.18878 17.1031 6.80458 17.0961C5.70621 17.0763 4.90397 17.0085 4.19962 16.7029C2.96683 16.1679 1.98737 15.1418 1.47673 13.8503C1.27158 13.3315 1.18081 12.7704 1.13691 12.0962C1.09374 11.4336 1.09375 10.6133 1.09375 9.56707V8.5888C1.09374 7.11907 1.09374 5.96685 1.17729 5.04635C1.26244 4.1081 1.439 3.33983 1.83516 2.66258C2.25001 1.95336 2.8192 1.35707 3.49618 0.922462C4.14264 0.507441 4.87599 0.322476 5.7716 0.233266C6.65025 0.145743 7.7501 0.145743 9.15303 0.145752ZM5.89583 1.60209C5.0963 1.68173 4.58755 1.83446 4.18196 2.09484C3.68158 2.41608 3.26088 2.85681 2.95425 3.38102C2.7057 3.80592 2.55991 4.3389 2.48389 5.1765C2.40694 6.02434 2.40625 7.11128 2.40625 8.62492V9.54159C2.40625 10.6188 2.40661 11.3922 2.44636 12.0026C2.48571 12.6067 2.56145 13.0007 2.68932 13.3241C3.06675 14.2787 3.7907 15.0371 4.7019 15.4325C5.15308 15.6283 5.72868 15.7015 6.82719 15.7214L6.85503 15.7218C7.20328 15.7282 7.50845 15.7336 7.7621 15.763C8.03465 15.7946 8.30121 15.8585 8.55738 16.0146C8.81143 16.1695 8.99456 16.3762 9.15434 16.6057C9.30186 16.8179 9.4535 17.0863 9.62535 17.3904L10.1139 18.2551C10.2826 18.5536 10.7174 18.5536 10.8861 18.2551L11.3747 17.3904C11.5464 17.0863 11.6981 16.8179 11.8457 16.6057C12.0054 16.3762 12.1886 16.1695 12.4426 16.0146C12.6988 15.8585 12.9653 15.7946 13.2379 15.763C13.4915 15.7336 13.7967 15.7282 14.1449 15.7218L14.1728 15.7214C15.2713 15.7015 15.847 15.6283 16.2981 15.4325C17.2093 15.0371 17.9332 14.2787 18.3107 13.3241C18.4385 13.0007 18.5143 12.6067 18.5537 12.0026C18.5934 11.3922 18.5938 10.6188 18.5938 9.54159V8.62492C18.5938 7.11128 18.5931 6.02434 18.5161 5.1765C18.4401 4.3389 18.2943 3.80592 18.0457 3.38102C17.7391 2.85681 17.3184 2.41608 16.818 2.09484C16.4125 1.83446 15.9037 1.68173 15.1042 1.60209C14.2949 1.52148 13.2573 1.52075 11.8125 1.52075H9.1875C7.74267 1.52075 6.70513 1.52148 5.89583 1.60209Z" fill="#292D32"/>
<path d="M7.875 9.08341C7.875 9.58969 7.48325 10.0001 7 10.0001C6.51676 10.0001 6.125 9.58969 6.125 9.08341C6.125 8.57714 6.51676 8.16675 7 8.16675C7.48325 8.16675 7.875 8.57714 7.875 9.08341Z" fill="#292D32"/>
<path d="M11.375 9.08341C11.375 9.58969 10.9833 10.0001 10.5 10.0001C10.0167 10.0001 9.625 9.58969 9.625 9.08341C9.625 8.57714 10.0167 8.16675 10.5 8.16675C10.9833 8.16675 11.375 8.57714 11.375 9.08341Z" fill="#292D32"/>
<path d="M14.875 9.08341C14.875 9.58969 14.4833 10.0001 14 10.0001C13.5167 10.0001 13.125 9.58969 13.125 9.08341C13.125 8.57714 13.5167 8.16675 14 8.16675C14.4833 8.16675 14.875 8.57714 14.875 9.08341Z" fill="#292D32"/>
</svg>
