<svg width="200" height="200" viewBox="0 0 200 200" fill="none" xmlns="http://www.w3.org/2000/svg">
  <!-- Background circle -->
  <circle cx="100" cy="100" r="100" fill="#f8f9fa"/>
  
  <!-- Face -->
  <circle cx="100" cy="85" r="45" fill="white" stroke="black" stroke-width="2"/>
  
  <!-- Hair -->
  <path d="M55 70 C55 45, 75 35, 100 35 C125 35, 145 45, 145 70 L145 85 C145 90, 140 95, 135 95 L65 95 C60 95, 55 90, 55 85 Z" fill="white" stroke="black" stroke-width="2"/>
  
  <!-- Hair strands -->
  <path d="M70 40 L70 60" stroke="black" stroke-width="1.5" stroke-linecap="round"/>
  <path d="M80 38 L80 65" stroke="black" stroke-width="1.5" stroke-linecap="round"/>
  <path d="M90 37 L90 68" stroke="black" stroke-width="1.5" stroke-linecap="round"/>
  <path d="M100 36 L100 70" stroke="black" stroke-width="1.5" stroke-linecap="round"/>
  <path d="M110 37 L110 68" stroke="black" stroke-width="1.5" stroke-linecap="round"/>
  <path d="M120 38 L120 65" stroke="black" stroke-width="1.5" stroke-linecap="round"/>
  <path d="M130 40 L130 60" stroke="black" stroke-width="1.5" stroke-linecap="round"/>
  
  <!-- Side hair -->
  <path d="M55 75 C50 75, 45 80, 45 85 C45 90, 50 95, 55 95" fill="white" stroke="black" stroke-width="2"/>
  <path d="M145 75 C150 75, 155 80, 155 85 C155 90, 150 95, 145 95" fill="white" stroke="black" stroke-width="2"/>
  
  <!-- Ears -->
  <ellipse cx="65" cy="85" rx="8" ry="12" fill="white" stroke="black" stroke-width="1.5"/>
  <ellipse cx="135" cy="85" rx="8" ry="12" fill="white" stroke="black" stroke-width="1.5"/>
  
  <!-- Eyes -->
  <ellipse cx="88" cy="78" rx="4" ry="6" fill="black"/>
  <ellipse cx="112" cy="78" rx="4" ry="6" fill="black"/>
  
  <!-- Eyebrows -->
  <path d="M82 68 Q88 65 94 68" stroke="black" stroke-width="1.5" stroke-linecap="round" fill="none"/>
  <path d="M106 68 Q112 65 118 68" stroke="black" stroke-width="1.5" stroke-linecap="round" fill="none"/>
  
  <!-- Nose -->
  <circle cx="100" cy="88" r="1" fill="black"/>
  
  <!-- Mouth -->
  <path d="M92 98 Q100 105 108 98" stroke="black" stroke-width="1.5" stroke-linecap="round" fill="none"/>
  
  <!-- Body/Shirt -->
  <path d="M100 130 L80 160 L80 200 L120 200 L120 160 Z" fill="white" stroke="black" stroke-width="2"/>
  
  <!-- Collar -->
  <path d="M85 135 L100 150 L115 135" fill="none" stroke="black" stroke-width="1.5"/>
  <path d="M85 135 L75 145" stroke="black" stroke-width="1.5"/>
  <path d="M115 135 L125 145" stroke="black" stroke-width="1.5"/>
  
  <!-- Tie/Bow -->
  <path d="M95 145 L105 145 L102 155 L98 155 Z" fill="white" stroke="black" stroke-width="1.5"/>
  <path d="M98 150 L102 150" stroke="black" stroke-width="1"/>
  
  <!-- Arms -->
  <path d="M80 160 L60 180 L60 200" stroke="black" stroke-width="2" fill="none"/>
  <path d="M120 160 L140 180 L140 200" stroke="black" stroke-width="2" fill="none"/>
</svg>
